PathFileType	4	(X/Y/Z)	c:/Users/goper/Files/vsCode/490R/osim_files/C07/C07_Fast_04.trc
DataRate	CameraRate	NumFrames	NumMarkers	Units                	OrigDataRate	OrigDataStartFrame	OrigNumFrames
250.00	250.00	10	36	mm	250.0	831	2214
                Frame#	Time	LPSIS			LASIS			LTH1			LTH2			LTH3			LTH4			LLFE			LMFE			LSH1			LSH2			LSH3			LSH4			LLMAL			LMMAL			LCAL			LMTP5			LTOE			LMTP1			RPSIS			RASIS			RTH1			RTH2			RTH3			RTH4			RLFE			RMFE			RSH1			RSH2			RSH3			RSH4			RLMAL			RMMAL			RCAL			RMTP1			RTOE			RMTP5		
		X1	Y1	Z1	X2	Y2	Z2	X3	Y3	Z3	X4	Y4	Z4	X5	Y5	Z5	X6	Y6	Z6	X7	Y7	Z7	X8	Y8	Z8	X9	Y9	Z9	X10	Y10	Z10	X11	Y11	Z11	X12	Y12	Z12	X13	Y13	Z13	X14	Y14	Z14	X15	Y15	Z15	X16	Y16	Z16	X17	Y17	Z17	X18	Y18	Z18	X19	Y19	Z19	X20	Y20	Z20	X21	Y21	Z21	X22	Y22	Z22	X23	Y23	Z23	X24	Y24	Z24	X25	Y25	Z25	X26	Y26	Z26	X27	Y27	Z27	X28	Y28	Z28	X29	Y29	Z29	X30	Y30	Z30	X31	Y31	Z31	X32	Y32	Z32	X33	Y33	Z33	X34	Y34	Z34	X35	Y35	Z35	X36	Y36	Z36

831	3.32000	100.39017	1007.57092	344.16287	-75.49591	989.33313	404.01877	-49.30604	785.41687	454.42892	-70.76614	709.70135	446.08643	-91.26761	639.30640	428.11108	-142.05289	735.00903	415.35144	-92.57595	515.74396	403.57886	-67.82217	505.12646	287.17947	-59.49146	328.51968	419.18179	0.00000	0.00000	0.00000	-96.21644	331.08154	396.18463	0.00000	0.00000	0.00000	-6.37120	109.88818	369.60349	-20.26733	130.97391	293.43805	62.96494	52.67296	333.23962	-127.60339	40.22989	382.36353	-178.09785	51.00174	322.87225	-139.71768	41.40919	274.41257	105.20427	1008.31744	242.98920	-46.26902	972.09802	152.19011	-16.24552	815.02765	102.19825	-35.46492	737.67261	96.92285	-52.19249	657.98462	99.49635	-107.04073	751.82556	122.70372	-63.87226	490.37921	120.54276	-69.77650	491.33807	236.14142	103.90794	437.63614	124.02452	129.06258	386.76306	118.59957	69.43095	386.77817	116.69175	107.29609	363.82776	121.43059	281.18036	311.45468	168.80777	250.74225	285.12112	241.59853	338.85345	332.91962	227.04991	275.20175	131.76166	234.80971	262.79355	118.23090	182.15048	304.82889	157.69965	131.38472
832	3.32400	95.28941	1008.90173	344.30975	-80.44814	990.08746	404.36789	-52.69025	786.10925	454.71674	-73.27620	710.10626	446.45511	-93.12463	639.53033	428.56815	-145.03506	734.93890	416.05136	-93.50520	515.92920	404.16867	-69.00931	505.35855	287.67242	-59.90237	328.58353	419.59561	0.00000	0.00000	0.00000	-96.50961	331.19931	396.76678	0.00000	0.00000	0.00000	-6.39316	110.05219	369.69119	-20.47192	131.25423	293.62006	62.97627	52.80978	333.20163	-127.54420	40.23030	382.39078	-178.07581	50.99315	322.86829	-139.70439	41.42390	274.43710	100.14571	1009.74695	243.12772	-51.82513	973.38947	152.87999	-23.45258	815.98621	102.98872	-42.81012	739.31622	96.95662	-59.98531	659.12646	98.65218	-114.24166	754.30988	122.39805	-75.03341	492.74164	119.18561	-78.98905	493.45645	235.85893	92.90086	439.01349	124.20985	117.77775	388.04501	118.48182	58.18396	388.51093	116.56766	95.86764	365.18845	121.18015	269.90564	311.40430	168.56155	239.11441	285.56937	241.69362	327.90894	331.72980	226.80222	260.98456	131.70055	233.87013	247.79149	118.64752	181.33536	289.98950	157.77922	130.34044
833	3.32800	90.22604	1010.07269	344.39410	-85.36792	990.80804	404.76685	-56.02168	786.79736	455.01559	-75.78899	710.53168	446.84146	-95.03043	639.81055	429.05307	-147.94757	734.85718	416.75644	-94.43591	516.10284	404.71356	-70.17293	505.60455	288.13690	-60.29155	328.65167	419.99652	0.00000	0.00000	0.00000	-96.88716	331.38422	397.39185	0.00000	0.00000	0.00000	-6.59239	110.27751	369.76883	-20.69367	131.48535	293.79544	62.91329	52.95992	333.25955	-127.62891	40.26549	382.41016	-178.10262	50.95258	322.91281	-139.72093	41.45164	274.44070	95.11138	1011.14032	243.18538	-56.56677	974.94415	153.00072	-30.13148	817.38818	103.17874	-49.86680	741.10974	96.75164	-67.54824	660.77502	97.96807	-121.43311	756.70044	122.21558	-85.27379	494.96899	119.04688	-88.49178	495.71640	235.62337	82.09110	440.24783	124.32797	106.60128	389.05856	118.36087	47.33253	390.20602	116.12319	84.54913	366.49207	120.99937	258.09048	311.13953	168.47719	227.32550	285.73486	241.74080	316.85928	330.39734	226.48088	246.76968	131.31042	233.08934	232.80870	118.91141	180.58514	275.14902	157.57120	129.37669
834	3.33200	85.10918	1011.26282	344.55542	-90.28494	991.42523	405.11868	-59.28848	787.47791	455.31003	-78.56937	711.03888	447.25482	-97.54158	640.13904	429.57513	-150.89192	734.67706	417.47549	-95.30744	516.29602	405.28986	-71.31231	505.86429	288.56815	-60.66245	328.72443	420.38049	0.00000	0.00000	0.00000	-97.15789	331.56610	397.88449	0.00000	0.00000	0.00000	-6.82705	110.51803	369.83917	-20.89687	131.72290	293.87344	62.74467	53.11848	333.24887	-127.72941	40.31878	382.43518	-178.13045	50.90736	322.92606	-139.73814	41.45080	274.46057	89.95192	1012.39276	243.35536	-61.68113	976.34863	153.37175	-36.32727	818.98340	102.99933	-57.21904	742.68842	96.86624	-75.93695	662.90228	98.41226	-128.33212	759.11682	122.02793	-95.53706	497.20215	118.86335	-98.24677	498.10080	235.42960	71.25937	441.16873	124.35113	95.32890	389.81677	118.30216	35.63096	391.24606	116.62309	73.07391	367.41971	120.90091	246.21391	310.54675	168.41933	215.41791	285.69577	241.78593	305.37045	328.73270	226.23355	232.28998	130.92445	232.27274	217.77693	118.94414	179.78246	260.24335	157.17516	128.52267
835	3.33600	80.03700	1012.38599	344.60565	-95.17976	992.04327	405.55292	-62.59678	788.16315	455.61179	-80.77608	711.40979	447.64001	-98.90369	640.24011	430.04620	-153.84474	734.38153	418.13934	-96.13747	516.54187	405.88541	-72.42672	506.13742	288.96140	-61.01854	328.80191	420.74341	0.00000	0.00000	0.00000	-97.40189	331.73407	398.45563	0.00000	0.00000	0.00000	-6.91474	110.73618	369.91232	-21.06645	131.92535	293.93759	63.05640	53.42128	333.81055	-127.78511	40.32322	382.44531	-178.16359	50.84583	322.95050	-139.78346	41.48931	274.46234	84.81204	1013.59979	243.45975	-66.72727	977.58746	153.91647	-42.95343	820.30109	103.15829	-64.44907	744.35156	96.84132	-83.81555	664.56836	98.12579	-134.96896	761.43347	122.28414	-105.77846	499.49768	118.65805	-108.21613	500.59247	235.27251	60.54043	441.93188	124.41898	84.22784	390.54047	118.20702	24.52740	392.47775	116.48822	61.59850	368.11874	120.86242	234.32347	309.72852	168.34245	202.92122	283.25174	240.24908	294.28894	326.77277	225.91946	217.66583	130.25777	231.36717	202.64307	118.79479	178.97090	245.49139	156.63292	127.60365
836	3.34000	75.05817	1013.42181	344.69388	-99.89748	992.60626	406.02930	-65.97714	788.83490	455.91879	-84.07727	712.05994	448.08282	-101.50455	640.63000	430.51816	-156.70558	734.10431	418.66315	-96.85635	516.75165	406.40945	-73.51545	506.42383	289.31186	-61.36330	328.88449	421.08112	0.00000	0.00000	0.00000	-97.52002	331.85458	398.98288	0.00000	0.00000	0.00000	-6.90493	110.94476	369.89902	-21.22535	132.14577	293.93552	62.59399	53.35711	333.33212	-127.71983	40.27921	382.46194	-178.11288	50.79499	322.95328	-139.79323	41.47544	274.48456	79.83609	1014.81592	243.48875	-71.77144	978.85291	154.36990	-49.24934	821.87140	103.11797	-71.63290	746.09302	96.77836	-91.91996	666.63702	98.05184	-142.71793	764.28662	121.73469	-115.88864	501.87170	118.52834	-118.36192	503.17419	235.14700	49.99791	442.60324	124.29831	73.07593	390.92444	118.07835	13.42023	393.41354	116.73721	50.19020	368.78574	120.80923	222.65131	309.07959	167.87173	190.81856	282.46591	240.17607	282.80490	324.54272	225.81123	203.10162	129.39163	230.59624	187.67299	118.43475	178.10815	230.79724	155.92612	126.71273
837	3.34400	70.07563	1014.43756	344.70062	-104.51360	993.02155	406.51242	-69.04005	789.33978	456.14603	-86.73872	712.46454	448.47028	-103.13357	640.84503	430.97998	-159.43828	733.93884	419.05508	-97.48461	516.90192	406.81287	-74.57776	506.72324	289.61478	-61.70020	328.97241	421.38959	0.00000	0.00000	0.00000	-97.62464	331.96524	399.40707	0.00000	0.00000	0.00000	-6.81313	111.11947	369.91998	-21.35664	132.34741	293.93005	62.62482	53.45838	333.31287	-127.58305	40.21810	382.43753	-178.07858	50.73508	322.92844	-139.82593	41.48054	274.47031	74.89732	1015.90466	243.57472	-76.68206	980.09576	154.91768	-55.64389	823.41772	103.11765	-78.88995	747.75732	96.79770	-99.98750	668.66309	98.09276	-149.85551	766.78253	121.53352	-125.81725	504.17825	118.38632	-128.64624	505.82892	235.04791	39.30444	442.99765	124.31517	61.95713	391.14944	117.93578	2.05962	394.10059	116.46919	38.79236	369.31168	120.74544	210.60245	307.77890	167.84468	178.53181	281.51202	240.01895	271.32806	322.11597	225.60738	188.24181	128.26051	229.72301	171.12953	118.08063	177.77901	216.11319	154.93292	125.94132
838	3.34800	65.15595	1015.43311	344.65674	-109.48505	993.59058	407.06152	-71.66217	789.62823	456.27573	-89.36754	712.74548	448.77087	-105.14579	641.05420	431.36267	-162.23282	733.72552	419.59573	-98.27249	517.06555	407.28442	-75.61295	507.03546	289.86539	-62.03270	329.06589	421.66470	0.00000	0.00000	0.00000	-97.88368	332.15274	399.86133	0.00000	0.00000	0.00000	-6.80674	111.33948	369.94141	-22.43378	133.30482	293.24826	62.61642	53.55481	333.26251	-127.49332	40.15648	382.41095	-178.03421	50.68349	322.92209	-139.83249	41.44282	274.45374	69.83458	1017.02191	243.65092	-81.78547	981.15656	155.57443	-62.07769	824.86584	103.17232	-85.92416	749.66870	96.62316	-107.73743	670.52484	97.59654	-156.51479	769.02637	121.60631	-135.65117	506.52808	118.26477	-139.03117	508.53937	234.97012	28.85347	443.36389	124.16493	50.82868	391.22321	117.79025	-8.99353	395.10394	116.50545	27.41887	369.66275	120.82217	198.64412	306.30777	167.69902	166.21184	280.17484	239.76480	259.62326	319.36490	225.63828	173.33237	127.05583	228.82846	157.32607	117.22217	176.66064	201.53804	153.78011	125.09883
839	3.35200	60.25651	1016.37793	344.62433	-114.24473	993.95306	407.45926	-74.75990	790.05060	456.51175	-91.94980	713.05334	449.04587	-106.65728	641.11407	431.56989	-165.03535	733.42883	420.27893	-99.01346	517.24780	407.74619	-76.62028	507.36017	290.05890	-62.36428	329.16522	421.90222	0.00000	0.00000	0.00000	-98.23495	332.26324	400.22525	0.00000	0.00000	0.00000	-6.90515	111.55170	369.95572	-21.48520	132.70166	294.18503	62.51055	53.67051	333.31268	-127.53739	40.10587	382.36838	-178.04710	50.62584	322.90909	-139.85590	41.40794	274.44070	64.79750	1018.00885	243.71004	-86.44395	982.29248	156.02310	-68.22031	826.58502	103.04189	-93.75414	751.15485	97.57771	-116.89858	673.11450	99.76714	-163.59647	771.51306	121.71912	-145.41905	508.81494	118.16881	-149.47879	511.28851	234.90855	18.32794	443.48761	124.10781	39.52830	390.71710	116.89149	-20.21438	395.87125	116.43958	16.58008	369.35608	121.06648	186.55281	304.62662	167.55516	153.62962	278.85776	239.56995	247.81822	316.45862	225.64510	157.99887	125.69537	227.97659	140.64084	116.45358	175.98747	186.87390	152.36147	124.35687
840	3.35600	55.25903	1017.26990	344.65201	-118.81030	994.34540	407.95816	-77.92511	790.52814	456.72745	-94.43117	713.39905	449.34659	-108.50857	641.37085	431.92966	-167.71202	733.06329	421.00397	-99.96609	517.54962	408.15128	-77.65129	507.69586	290.21671	-62.69841	329.27066	422.09821	0.00000	0.00000	0.00000	-98.63754	332.38278	400.53629	0.00000	0.00000	0.00000	-6.99009	111.84023	369.95288	-21.69341	132.93747	294.12653	62.32941	53.77888	332.95694	-127.64314	40.14759	382.30411	-178.11656	50.61855	322.91077	-139.85530	41.40149	274.39423	59.78185	1019.09369	243.78947	-91.57864	983.11414	156.73000	-73.91282	828.45013	102.68936	-100.68298	753.08392	97.19836	-124.80566	675.71234	99.36550	-170.30252	774.09662	121.62810	-155.11247	511.03873	117.97354	-159.95119	514.05902	234.85802	7.77928	443.59598	123.95271	28.40257	390.94009	117.50410	-31.20455	396.47314	116.30708	4.62200	370.05081	120.62392	174.31038	302.72076	167.51070	141.03198	277.46356	239.41148	235.87540	313.33075	225.70853	142.56322	124.28947	227.01990	125.27025	115.36346	174.99492	172.20198	150.88257	123.61072
